<svg width="36" height="36" viewBox="0 0 36 36" fill="none" xmlns="http://www.w3.org/2000/svg">
<path d="M29.0249 19.125H4.52515C4.22678 19.125 3.94063 19.0065 3.72965 18.7955C3.51867 18.5845 3.40015 18.2984 3.40015 18C3.40015 17.7016 3.51867 17.4155 3.72965 17.2045C3.94063 16.9935 4.22678 16.875 4.52515 16.875H29.0249C29.3233 16.875 29.6095 16.9935 29.8204 17.2045C30.0314 17.4155 30.1499 17.7016 30.1499 18C30.1499 18.2984 30.0314 18.5845 29.8204 18.7955C29.6095 19.0065 29.3233 19.125 29.0249 19.125Z" fill="#FF350D"/>
<path d="M21.0041 28.08C20.7816 28.08 20.564 28.0141 20.379 27.8905C20.1939 27.7669 20.0497 27.5911 19.9646 27.3855C19.8794 27.18 19.8571 26.9537 19.9005 26.7355C19.944 26.5172 20.0511 26.3167 20.2085 26.1594L28.3589 18L20.2085 9.8496C20.104 9.74512 20.0212 9.62108 19.9646 9.48457C19.9081 9.34806 19.879 9.20175 19.879 9.054C19.879 8.90624 19.9081 8.75993 19.9646 8.62342C20.0212 8.48691 20.104 8.36288 20.2085 8.2584C20.313 8.15392 20.437 8.07104 20.5735 8.01449C20.7101 7.95795 20.8564 7.92885 21.0041 7.92885C21.1519 7.92885 21.2982 7.95795 21.4347 8.01449C21.5712 8.07104 21.6952 8.15392 21.7997 8.2584L31.5395 18L21.7997 27.7416C21.6961 27.8478 21.5724 27.9325 21.4358 27.9906C21.2993 28.0486 21.1525 28.079 21.0041 28.08Z" fill="#FF350D"/>
</svg>
