<svg width="38" height="38" viewBox="0 0 38 38" fill="none" xmlns="http://www.w3.org/2000/svg">
<path d="M19 15.6413L5.55122 2.19247C4.65025 1.2915 3.13373 1.27875 2.20624 2.20624C1.27227 3.1402 1.27258 4.63135 2.19246 5.55123L15.6413 19L2.19247 32.4488C1.29149 33.3498 1.27875 34.8663 2.20624 35.7938C3.1402 36.7278 4.63133 36.7275 5.55123 35.8076L19 22.3588L32.4488 35.8076C33.3498 36.7086 34.8663 36.7213 35.7938 35.7938C36.7278 34.8599 36.7275 33.3687 35.8076 32.4488L22.3588 19L35.8076 5.55123C36.7086 4.65025 36.7213 3.13373 35.7938 2.20624C34.8598 1.27227 33.3687 1.27258 32.4488 2.19248L19 15.6413Z" fill="white"/>
</svg>
