<svg width="48" height="48" viewBox="0 0 48 48" fill="none" xmlns="http://www.w3.org/2000/svg">
<path d="M25.5709 5.79297C25.5709 4.90285 24.9236 4.17456 24.0335 4.17456C23.1433 4.17456 22.415 4.90285 22.415 5.79297C22.415 5.87389 22.415 5.95481 22.415 6.03574C22.415 11.2956 22.415 14.4515 22.415 18.7403C22.415 20.035 22.8196 21.087 23.7098 21.8962C24.4381 22.5435 25.2473 23.1909 26.0565 23.7574C27.2703 24.5666 28.565 25.2139 29.8597 25.9422C30.9117 26.5087 31.4782 27.3988 31.5591 28.6126C31.5591 29.3409 31.64 30.0692 31.64 30.8784C31.64 33.4678 31.64 35.4099 31.64 37.7566C31.64 37.8375 31.64 37.9185 31.64 37.9994C31.64 38.8895 32.3683 39.5369 33.2584 39.5369C34.0676 39.5369 34.7959 38.8895 34.7959 38.0803C34.7959 38.0803 34.7959 38.0803 34.7959 37.9994V37.9185C34.7959 35.0862 34.7959 32.254 34.7959 29.3409C34.7959 27.3988 33.8248 25.9422 31.9637 25.2948C31.2354 25.0521 30.5071 24.8093 29.8597 24.5666C27.1084 23.5955 25.7328 21.8962 25.5709 18.9021C25.5709 16.7982 25.5709 8.30151 25.5709 6.11666" fill="white"/>
<path d="M16.346 9.51528C16.346 9.43435 16.346 9.35343 16.346 9.27251C16.1841 8.54423 15.5367 7.97778 14.7275 7.97778C13.9183 7.97778 13.271 8.54423 13.1091 9.35343C13.1091 9.35343 13.1091 9.35343 13.1091 9.43435C13.1091 9.51528 13.1091 9.5962 13.1091 9.67712C13.1091 9.75804 13.1091 9.75804 13.1091 9.83896C13.1091 12.9139 13.1091 16.0698 13.1091 19.2258C13.1091 20.1968 13.4328 21.0869 14.0802 21.7343C14.8085 22.4626 15.6177 23.1909 16.5078 23.7573C17.8834 24.6474 19.2591 25.4566 20.6347 26.1849C21.6867 26.7514 22.1722 27.6415 22.1722 28.7744C22.1722 29.5027 22.2532 30.231 22.2532 30.9592C22.2532 34.4388 22.2532 37.9184 22.2532 41.398C22.2532 41.4789 22.2532 41.4789 22.2532 41.5598C22.2532 41.5598 22.2532 41.5598 22.2532 41.6408C22.2532 42.5309 22.9814 43.2592 23.8716 43.2592C24.7617 43.2592 25.49 42.5309 25.49 41.6408C25.49 41.6408 25.49 41.6408 25.49 41.5598C25.49 37.5138 25.49 33.6296 25.49 29.5836C25.49 27.5606 24.5189 26.0231 22.4959 25.3757C21.8486 25.133 21.2012 24.8902 20.5538 24.7284C17.8025 23.8382 16.4269 21.8961 16.265 19.1448" fill="white"/>
<path d="M31.5591 12.1856C31.5591 15.6652 31.5591 19.1448 31.5591 22.7053C31.5591 22.9481 31.7209 23.2718 31.8828 23.3527C32.8538 23.8382 33.8249 24.3237 34.7959 24.8093C34.7959 24.8093 34.7959 14.5323 34.7959 9.43433C34.7959 8.5442 34.0676 7.81592 33.1775 7.81592C32.2874 7.81592 31.5591 8.5442 31.5591 9.35341" fill="white"/>
<path d="M7.68741 28.6126V13.885C5.50255 15.0988 3.47953 16.3126 1.29468 17.6074C3.39861 21.2488 5.50255 24.8902 7.68741 28.6126Z" fill="white"/>
<path d="M40.3795 18.821C40.3795 18.821 40.2986 18.821 40.2986 18.902V33.4677C42.4834 32.2539 44.5874 31.0401 46.6913 29.7453C44.5874 26.023 42.4834 22.3816 40.3795 18.821Z" fill="white"/>
<path d="M16.4268 26.104C16.4268 25.9422 16.2649 25.6994 16.184 25.6185C15.213 24.8902 14.161 24.2428 13.1899 23.5955C13.1899 23.5955 13.1899 33.3059 13.1899 38.0803C13.1899 38.9704 13.9182 39.6987 14.8084 39.6987C15.6985 39.6987 16.4268 38.9704 16.4268 38.1612" fill="white"/>
</svg>
