<svg width="38" height="38" viewBox="0 0 38 38" fill="none" xmlns="http://www.w3.org/2000/svg">
<path d="M0.0244141 6.28155C0.0244141 6.8535 0.260244 7.42275 0.664137 7.82664C1.07074 8.23324 1.63999 8.46907 2.21465 8.46907C2.7935 8.46595 3.34811 8.23632 3.75975 7.82935C4.16635 7.42275 4.40218 6.8535 4.40218 6.28155C4.4012 5.70121 4.17246 5.14444 3.76517 4.73103C3.35219 4.32275 2.79538 4.09301 2.21465 4.09131C1.63393 4.09301 1.07711 4.32275 0.664137 4.73103C0.257568 5.14514 0.0281325 5.70123 0.0244141 6.28155ZM0.0244141 17.9565C0.0244141 18.5284 0.257533 19.1031 0.664137 19.507C1.07074 19.9136 1.63728 20.1467 2.21465 20.1467C2.79432 20.1437 3.34983 19.9141 3.76246 19.507C4.17099 19.0942 4.40077 18.5373 4.40218 17.9565C4.39919 17.3768 4.16959 16.8213 3.76246 16.4087C3.35032 16.0008 2.79449 15.7711 2.21465 15.769C1.63405 15.7712 1.07744 16.0009 0.664137 16.4087C0.256264 16.8208 0.0265374 17.3766 0.0244141 17.9565ZM0.0244141 29.6341C0.0244141 30.2061 0.257533 30.7781 0.664137 31.1847C1.07074 31.5913 1.63728 31.8244 2.21465 31.8244C2.79432 31.8214 3.34983 31.5918 3.76246 31.1847C4.17099 30.7719 4.40077 30.2149 4.40218 29.6341C4.3999 29.0535 4.17025 28.4969 3.76246 28.0836C3.35032 27.6758 2.79449 27.446 2.21465 27.4439C1.63405 27.4462 1.07744 27.6758 0.664137 28.0836C0.257081 28.4974 0.027561 29.0537 0.0244141 29.6341ZM37.9741 6.28155C37.9741 7.49051 37.0308 8.46907 35.8679 8.46907H10.8889C9.72326 8.46907 8.78265 7.49323 8.78265 6.28155C8.77994 5.06716 9.72326 4.09131 10.8889 4.09131H35.8679C37.0335 4.09131 37.9741 5.06987 37.9741 6.28155ZM35.8679 20.1467H10.8889C9.72326 20.1467 8.78265 19.1682 8.78265 17.9565C8.78265 16.7475 9.72326 15.769 10.8889 15.769H35.8679C37.0335 15.7635 37.9741 16.7448 37.9741 17.9565C37.9741 19.1627 37.0308 20.1467 35.8679 20.1467ZM37.9741 29.6314C37.9741 30.8431 37.0308 31.8244 35.8679 31.8244H10.8889C9.72326 31.8244 8.78265 30.8431 8.78265 29.6314C8.78265 28.4252 9.72326 27.4439 10.8889 27.4439H35.8679C37.0335 27.4412 37.9741 28.4252 37.9741 29.6314Z" fill="white"/>
</svg>
